<?xml version="1.0" encoding="UTF-8"?>
<svg width="24" height="24" viewBox="0 0 24 24" fill="none" xmlns="http://www.w3.org/2000/svg">
  <path d="M7.5 4.5H19.5L18.5 19.5H8.5L7.5 4.5Z" fill="#FFDD00"/>
  <path d="M6.5 7.5H20.5L19.5 20.5H7.5L6.5 7.5Z" fill="#FFDD00"/>
  <path d="M19.5 9.5H7.5L8 17.5H19L19.5 9.5Z" fill="white"/>
  <path d="M13.5 2.5C13.5 2.5 14.5 2.5 14.5 3.5C14.5 4.5 13.5 4.5 13.5 4.5H11.5C11.5 4.5 10.5 4.5 10.5 3.5C10.5 2.5 11.5 2.5 11.5 2.5H13.5Z" fill="#FFDD00"/>
  <path d="M13.5 11.5C15.5 11.5 16.5 13 16.5 14C16.5 15 15.5 16.5 13.5 16.5C11.5 16.5 10.5 15 10.5 14C10.5 13 11.5 11.5 13.5 11.5Z" fill="#FFDD00"/>
</svg> 