<?xml version="1.0" encoding="UTF-8"?>
<svg width="24" height="24" viewBox="0 0 24 24" fill="none" xmlns="http://www.w3.org/2000/svg">
  <path d="M23.4985 6.51357C23.2225 5.47261 22.4092 4.65928 21.3682 4.38332C19.5052 3.86667 12 3.86667 12 3.86667C12 3.86667 4.49485 3.86667 2.63178 4.38332C1.59082 4.65928 0.777485 5.47261 0.501485 6.51357C-0.0151515 8.37666 -0.0151515 12.4 -0.0151515 12.4C-0.0151515 12.4 -0.0151515 16.4233 0.501485 18.2864C0.777485 19.3274 1.59082 20.1407 2.63178 20.4167C4.49485 20.9333 12 20.9333 12 20.9333C12 20.9333 19.5052 20.9333 21.3682 20.4167C22.4092 20.1407 23.2225 19.3274 23.4985 18.2864C24.0152 16.4233 24.0152 12.4 24.0152 12.4C24.0152 12.4 24.0152 8.37666 23.4985 6.51357Z" fill="#FF0000"/>
  <path d="M9.54547 15.8666L15.8182 12.4L9.54547 8.93333V15.8666Z" fill="white"/>
</svg> 