<?xml version="1.0" encoding="UTF-8"?>
<svg width="504" height="504" xmlns="http://www.w3.org/2000/svg">
  <defs>
    <radialGradient id="a" cx="0" cy="0.5" r="1.5">
      <stop offset="0" stop-color="#fdf497"/>
      <stop offset="0.05" stop-color="#fdf497"/>
      <stop offset="0.45" stop-color="#fd5949"/>
      <stop offset="0.6" stop-color="#d6249f"/>
      <stop offset="0.9" stop-color="#285aeb"/>
    </radialGradient>
  </defs>
  <path d="M252 45.5c67.3 0 75.2.3 101.8 1.5 24.6 1.1 37.9 5.2 46.8 8.7 11.8 4.6 20.2 10 29 18.8 8.8 8.8 14.3 17.2 18.8 29 3.4 8.9 7.6 22.2 8.7 46.8 1.2 26.6 1.5 34.5 1.5 101.8s-.3 75.2-1.5 101.8c-1.1 24.6-5.2 37.9-8.7 46.8-4.6 11.8-10 20.2-18.8 29-8.8 8.8-17.2 14.3-29 18.8-8.9 3.4-22.2 7.6-46.8 8.7-26.6 1.2-34.5 1.5-101.8 1.5s-75.2-.3-101.8-1.5c-24.6-1.1-37.9-5.2-46.8-8.7-11.8-4.6-20.2-10-29-18.8-8.8-8.8-14.3-17.2-18.8-29-3.4-8.9-7.6-22.2-8.7-46.8-1.2-26.6-1.5-34.5-1.5-101.8s.3-75.2 1.5-101.8c1.1-24.6 5.2-37.9 8.7-46.8 4.6-11.8 10-20.2 18.8-29 8.8-8.8 17.2-14.3 29-18.8 8.9-3.4 22.2-7.6 46.8-8.7 26.6-1.2 34.5-1.5 101.8-1.5m0-45.4c-68.4 0-77 .3-103.9 1.5C121.2 2.8 102.9 7.1 86.9 13.2c-16.6 6.4-30.6 15.1-44.6 29.1-14 14-22.6 28.1-29.1 44.6-6.2 16-10.5 34.3-11.7 61.2C.3 175 0 183.6 0 252s.3 77 1.5 103.9c1.2 26.8 5.5 45.1 11.7 61.2 6.4 16.6 15.1 30.6 29.1 44.6 14 14 28.1 22.6 44.6 29.1 16 6.2 34.3 10.5 61.2 11.7 26.9 1.2 35.4 1.5 103.9 1.5s77-.3 103.9-1.5c26.8-1.2 45.1-5.5 61.2-11.7 16.6-6.4 30.6-15.1 44.6-29.1 14-14 22.6-28.1 29.1-44.6 6.2-16 10.5-34.3 11.7-61.2 1.2-26.9 1.5-35.4 1.5-103.9s-.3-77-1.5-103.9c-1.2-26.8-5.5-45.1-11.7-61.2-6.4-16.6-15.1-30.6-29.1-44.6-14-14-28.1-22.6-44.6-29.1-16-6.2-34.3-10.5-61.2-11.7C329 .3 320.4 0 252 0z" fill="url(#a)"/>
  <path d="M252 122.6c-71.4 0-129.4 57.9-129.4 129.4s57.9 129.4 129.4 129.4 129.4-57.9 129.4-129.4-58-129.4-129.4-129.4zm0 213.4c-46.4 0-84-37.6-84-84s37.6-84 84-84 84 37.6 84 84-37.6 84-84 84z" fill="url(#a)"/>
  <circle cx="386.4" cy="117.6" r="30.2" fill="url(#a)"/>
</svg> 